<?xml version="1.0" standalone="no"?>
<svg xmlns:xlink="http://www.w3.org/1999/xlink" id="wave" style="transform:rotate(180deg); transition: 0.3s" viewBox="0 0 1440 100" version="1.1" xmlns="http://www.w3.org/2000/svg"><defs><linearGradient id="sw-gradient-0" x1="0" x2="0" y1="1" y2="0"><stop stop-color="rgba(255, 239, 242, 1)" offset="0%"/><stop stop-color="rgba(255, 223, 229, 1)" offset="100%"/></linearGradient></defs><path style="transform:translate(0, 0px); opacity:1" fill="url(#sw-gradient-0)" d="M0,40L120,46.7C240,53,480,67,720,60C960,53,1200,27,1440,28.3C1680,30,1920,60,2160,68.3C2400,77,2640,63,2880,56.7C3120,50,3360,50,3600,45C3840,40,4080,30,4320,33.3C4560,37,4800,53,5040,50C5280,47,5520,23,5760,16.7C6000,10,6240,20,6480,20C6720,20,6960,10,7200,10C7440,10,7680,20,7920,20C8160,20,8400,10,8640,10C8880,10,9120,20,9360,28.3C9600,37,9840,43,10080,53.3C10320,63,10560,77,10800,68.3C11040,60,11280,30,11520,15C11760,0,12000,0,12240,5C12480,10,12720,20,12960,26.7C13200,33,13440,37,13680,36.7C13920,37,14160,33,14400,35C14640,37,14880,43,15120,45C15360,47,15600,43,15840,46.7C16080,50,16320,60,16560,60C16800,60,17040,50,17160,45L17280,40L17280,100L17160,100C17040,100,16800,100,16560,100C16320,100,16080,100,15840,100C15600,100,15360,100,15120,100C14880,100,14640,100,14400,100C14160,100,13920,100,13680,100C13440,100,13200,100,12960,100C12720,100,12480,100,12240,100C12000,100,11760,100,11520,100C11280,100,11040,100,10800,100C10560,100,10320,100,10080,100C9840,100,9600,100,9360,100C9120,100,8880,100,8640,100C8400,100,8160,100,7920,100C7680,100,7440,100,7200,100C6960,100,6720,100,6480,100C6240,100,6000,100,5760,100C5520,100,5280,100,5040,100C4800,100,4560,100,4320,100C4080,100,3840,100,3600,100C3360,100,3120,100,2880,100C2640,100,2400,100,2160,100C1920,100,1680,100,1440,100C1200,100,960,100,720,100C480,100,240,100,120,100L0,100Z"/></svg>